<svg xmlns="http://www.w3.org/2000/svg" width="18" height="20" fill="currentColor">
  <path
    d="m9.321 20-6.348-6.561C2.813 10.75 1.848 8.459 0 6.56c3.054 1.977 4.902 3.716 5.545 5.297C5.223 6.957 4.259 3.004 2.732 0c4.42 6.087 6.67 10.751 6.83 13.913.161 3.162.08 5.217-.24 6.087Zm2.492-3.162c.24-4.98 2.25-8.775 6.187-11.304-1.929 2.845-2.732 5.533-2.571 8.142l-3.617 3.162Zm-1.045-5.455L9.723 7.115c1.125-2.293 2.973-4.664 5.464-6.957-1.767 3.162-2.812 5.692-3.294 7.51-.402 1.897-.804 3.083-1.125 3.715Z"
  />
</svg>
