<svg width="48" height="48" viewBox="0 0 48 48" fill="none" xmlns="http://www.w3.org/2000/svg">
<rect width="48" height="48" fill="black"/>
<path d="M23.8543 7C33.153 7 41 14.7803 41 24C41 33.2197 33.153 41 23.8543 41C14.5556 41 7 33.2197 7 24C7 14.7803 14.5556 7 23.8543 7ZM23.8543 11.4306C16.8546 11.4306 11.1771 17.0598 11.1771 24C11.1771 30.9402 16.8546 36.5694 23.8543 36.5694C30.854 36.5694 36.5314 30.9402 36.5314 24C36.5314 17.0598 30.854 11.4306 23.8543 11.4306Z" fill="white"/>
<path d="M21.2368 18.1353C22.6022 16.7816 24.8149 16.7816 26.1803 18.1353L29.4778 21.4048C30.8432 22.7586 30.8432 24.9525 29.4778 26.3063L26.1803 29.5757C24.8149 30.9295 22.6022 30.9295 21.2368 29.5757L17.9394 26.3063C16.574 24.9525 16.574 22.7586 17.9394 21.4048L21.2368 18.1353ZM23.7086 20.966C22.1003 20.966 20.7943 22.2609 20.7943 23.8555C20.7943 25.4501 22.1003 26.745 23.7086 26.745C25.3168 26.745 26.6229 25.4501 26.6229 23.8555C26.6229 22.2609 25.3168 20.966 23.7086 20.966Z" fill="white"/>
</svg>
