<svg xmlns="http://www.w3.org/2000/svg" width="24" height="24" fill="none">
  <path
    fill="#A45939"
    fill-rule="evenodd"
    d="M9.978 7.888 5.067 6.444c-.096 1.251.347 4.102 2.888 5.489h-2.31c.478 1.147 2.114 3.433 4.85 3.467a4.047 4.047 0 0 1 1.506-7.801 4.045 4.045 0 0 1 1.504 7.8c2.738-.033 4.373-2.32 4.852-3.466h-2.313c2.542-1.387 2.985-4.238 2.89-5.49l-4.912 1.445L11.999 5 9.979 7.888ZM12 18l-1.428-2.57a4.055 4.055 0 0 0 2.857 0L11.999 18Zm0-3.467a2.889 2.889 0 1 0 0-5.778 2.889 2.889 0 0 0 0 5.778Z"
    clip-rule="evenodd"
  />
</svg>
