<svg xmlns="http://www.w3.org/2000/svg" width="24" height="24" fill="none">
  <path
    fill="#F4C261"
    fill-rule="evenodd"
    d="m3.764 11.412-.588-6.765 6.176 2.941L12 4.648l2.647 2.94 6.177-2.94-.588 6.764-3.53 1.764h2.98L15.7 17.883l-1.348-1.764L12 19.94l-2.353-3.823L8.3 17.882l-3.985-4.705h2.98l-3.531-1.765Zm8.235 4.706a4.118 4.118 0 1 0 0-8.237 4.118 4.118 0 0 0 0 8.237Z"
    clip-rule="evenodd"
  />
  <path fill="#42C5E3" d="M12 14.941a2.941 2.941 0 1 0 0-5.882 2.941 2.941 0 0 0 0 5.882Z" />
</svg>
