<svg xmlns="http://www.w3.org/2000/svg" width="24" height="24" fill="none">
  <path
    fill="#7A5D73"
    fill-rule="evenodd"
    d="M3.176 11.412V5.235l6.176 2.941L12 5.236l2.647 2.94 6.177-2.94v6.176l-4.118 2.059 2.941.588-4.117 4.118-1.765-2.06v3.236h-3.53v-3.235L8.47 18.177l-4.118-4.118 2.941-.588-4.117-2.059Zm8.823 4.706a4.118 4.118 0 1 0 0-8.237 4.118 4.118 0 0 0 0 8.237Z"
    clip-rule="evenodd"
  />
  <path fill="#CB4A4A" d="M12 14.941a2.941 2.941 0 1 0 0-5.882 2.941 2.941 0 0 0 0 5.882Z" />
</svg>
