<svg xmlns="http://www.w3.org/2000/svg" width="24" height="24" fill="none">
  <path
    fill="#AE5B50"
    fill-rule="evenodd"
    d="m3.764 11.412-.588-6.177 6.176 2.941L12 5.236l2.647 2.94 6.177-2.94-.588 6.176-3.53 2.059h2.647l-3.235 4.411-1.765-1.764L12 19.353l-2.353-3.235-1.764 1.764-3.236-4.411h2.647l-3.53-2.061v.002Zm8.235 4.706a4.118 4.118 0 1 0 0-8.237 4.118 4.118 0 0 0 0 8.237Z"
    clip-rule="evenodd"
  />
  <path fill="#9D53D6" d="M12 14.941a2.941 2.941 0 1 0 0-5.882 2.941 2.941 0 0 0 0 5.882Z" />
</svg>
