<svg xmlns="http://www.w3.org/2000/svg" width="24" height="24" fill="none">
  <path
    fill="#55BDB9"
    fill-rule="evenodd"
    d="m4 5.283 6.082 2.461a3.973 3.973 0 0 0-1.749 1.888 3.916 3.916 0 0 0-.213 2.552C6.05 10.556 4.555 7.09 4 5.284Zm7.999 1.978c-.554 0-1.081.111-1.561.313L11.999 5l1.561 2.574A4.025 4.025 0 0 0 12 7.261ZM16 11.217a3.949 3.949 0 0 0-2.083-3.473L20 5.284c-.556 1.805-2.05 5.272-4.12 6.9.078-.31.12-.633.12-.966ZM12 15.174a4.003 4.003 0 0 0 3.615-2.26h2.671c-1.048.847-3.2 2.824-3.429 3.955l-1.428-1.412L12 18l-1.428-2.543-1.429 1.412c-.23-1.13-2.381-3.108-3.43-3.956h2.672a3.971 3.971 0 0 0 1.477 1.649c.64.4 1.38.612 2.138.612Zm0-1.13c.758 0 1.484-.298 2.02-.828a2.81 2.81 0 0 0 .837-1.998 2.81 2.81 0 0 0-.837-1.999A2.873 2.873 0 0 0 12 8.392c-.758 0-1.484.297-2.02.827a2.81 2.81 0 0 0-.837 1.998c0 .75.301 1.469.837 1.999s1.262.827 2.02.827Z"
    clip-rule="evenodd"
  />
</svg>
