<svg xmlns="http://www.w3.org/2000/svg" width="24" height="24" fill="none">
  <path
    fill="#8AA4A9"
    fill-rule="evenodd"
    d="m9.962 7.888-4.95-1.444c-.097 1.251.35 4.102 2.91 5.489H5.596c.481 1.147 2.13 3.433 4.889 3.467a4.068 4.068 0 0 1-2.059-1.818 4.02 4.02 0 0 1-.423-2.703 4.04 4.04 0 0 1 1.406-2.352 4.099 4.099 0 0 1 5.189-.003 4.039 4.039 0 0 1 1.408 2.354c.18.923.03 1.879-.425 2.704a4.066 4.066 0 0 1-2.063 1.817c2.76-.033 4.408-2.32 4.89-3.466h-2.33c2.561-1.387 3.008-4.238 2.911-5.49l-4.95 1.445L11.999 5 9.962 7.888ZM12 18l-1.439-2.57a4.116 4.116 0 0 0 2.879 0L11.999 18Zm0-3.467c.773 0 1.513-.305 2.06-.846a2.877 2.877 0 0 0 .852-2.043c0-.766-.307-1.501-.853-2.043A2.923 2.923 0 0 0 12 8.755c-.772 0-1.512.304-2.058.846a2.877 2.877 0 0 0-.853 2.043c0 .766.307 1.5.853 2.043a2.923 2.923 0 0 0 2.058.846Z"
    clip-rule="evenodd"
  />
</svg>
