<svg width="54" height="63" viewBox="0 0 54 63" fill="none" xmlns="http://www.w3.org/2000/svg">
<g clip-path="url(#clip0_21_2)">
<path d="M50.9781 8.33495L19.6911 0.135945C17.5321 -0.430055 15.3121 0.822945 14.7331 2.93495L2.15908 48.8349C1.58008 50.9479 2.86208 53.1189 5.02108 53.6859L36.3071 61.8859C38.4661 62.4509 40.6871 61.1979 41.2651 59.0849L53.8391 13.1849C54.4191 11.0709 53.1381 8.89995 50.9781 8.33495Z" fill="#853D1B"/>
<path d="M36 6.01099H4C1.791 6.01099 0 7.80199 0 10.011V58.01C0 60.219 1.791 62.01 4 62.01H36C38.209 62.01 40 60.219 40 58.01V10.011C40 7.80199 38.209 6.01099 36 6.01099Z" fill="#BB8836"/>
<path d="M34 10.011H6C4.896 10.011 4 10.906 4 12.011V56.009C4 57.114 4.896 58.01 6 58.01H34C35.104 58.01 36 57.114 36 56.009V12.011C36 10.905 35.104 10.011 34 10.011Z" fill="#885502"/>
<path d="M22.1213 24.1213C20.9497 22.9497 19.0503 22.9497 17.8787 24.1213L10.1213 31.8787C8.94975 33.0503 8.94975 34.9497 10.1213 36.1213L17.8787 43.8787C19.0503 45.0503 20.9497 45.0503 22.1213 43.8787L29.8787 36.1213C31.0503 34.9497 31.0503 33.0503 29.8787 31.8787L22.1213 24.1213Z" fill="#853D1B" stroke="#BB8836" stroke-width="2"/>
</g>
<defs>
<clipPath id="clip0_21_2">
<rect width="53.979" height="62.021" fill="white"/>
</clipPath>
</defs>
</svg>
