<svg width="20" height="20" viewBox="0 0 20 20" fill="none" xmlns="http://www.w3.org/2000/svg">
  <path
    fill-rule="evenodd"
    clip-rule="evenodd"
    d="M2.48257 5.55444L9.72208 1.58644L9.91855 4.02709L2.48257 5.55444Z"
    fill="#535072"
  />
  <path
    fill-rule="evenodd"
    clip-rule="evenodd"
    d="M17.4224 5.46976L9.7142 1.53886L9.91865 4.0271L17.4224 5.46976Z"
    fill="#7A7397"
  />
  <path
    fill-rule="evenodd"
    clip-rule="evenodd"
    d="M10.3278 18.5545L14.8986 12.7505L17.4224 13.9182L10.3278 18.5545Z"
    fill="#272643"
  />
  <path
    fill-rule="evenodd"
    clip-rule="evenodd"
    d="M10.3277 18.5545L5.75713 12.9561L2.47934 13.9489L10.3277 18.5545Z"
    fill="#27283E"
  />
  <path
    fill-rule="evenodd"
    clip-rule="evenodd"
    d="M17.4224 5.46976V13.9183L14.8986 12.7505L17.4224 5.46976Z"
    fill="#2D2D45"
  />
  <path
    fill-rule="evenodd"
    clip-rule="evenodd"
    d="M2.48262 5.77846L2.47934 13.9489L5.75713 12.9561L2.48262 5.77846Z"
    fill="#202134"
  />
  <path
    fill-rule="evenodd"
    clip-rule="evenodd"
    d="M17.4224 5.46977L14.8986 12.7505L9.86914 4.0271L17.4224 5.46977Z"
    fill="#42416C"
  />
  <path
    fill-rule="evenodd"
    clip-rule="evenodd"
    d="M2.48257 5.45782L5.74542 12.9561L9.91855 4.0271L2.48257 5.45782Z"
    fill="#363257"
  />
  <path
    fill-rule="evenodd"
    clip-rule="evenodd"
    d="M10.3277 18.5545L14.8985 12.7505L5.74545 12.9561L10.3277 18.5545Z"
    fill="#484979"
  />
  <path
    fill-rule="evenodd"
    clip-rule="evenodd"
    d="M9.91861 4.0271L5.75714 12.9561L14.8985 12.7505L9.91861 4.0271Z"
    fill="#363356"
  />
  <path
    fill-rule="evenodd"
    clip-rule="evenodd"
    d="M14.8757 13.0516L14.9354 13.1571L14.9948 12.9858L17.0393 13.9877L11.0938 17.8543L14.8757 13.0516ZM5.6526 13.1655L5.74019 13.3666L5.78869 13.2624L9.60188 17.9326L2.89935 13.9995L5.6526 13.1655ZM5.51609 12.8521L2.64783 13.7212L2.65069 6.55305L5.35441 12.4801L5.51609 12.8521ZM9.68596 3.89892L3.5477 5.07969L9.57503 1.85723L9.73222 3.81197L9.62501 3.79116L9.68596 3.89892ZM10.1661 3.89542L10.2114 3.79858L10.1063 3.81877L9.96431 1.87269L16.2702 5.07432L10.1661 3.89542ZM15.108 12.6608L17.254 6.47042V13.6534L15.108 12.6608ZM14.5441 12.9275L10.3254 18.2848L6.10694 13.1181L14.5441 12.9275ZM8.96189 4.38339L9.62541 4.25584L5.75329 12.542L5.66078 12.3394L2.7215 5.58434L8.96189 4.38339ZM17.1989 5.59918L14.8611 12.3429L10.2801 4.26325L13.615 4.90679L17.1989 5.59918ZM9.93341 4.39349L14.6111 12.587L6.02487 12.7808L9.93341 4.39349ZM17.5909 14.0322L17.7237 13.9458L17.5909 13.8808V5.53097L17.6158 5.53571L17.5909 5.52313V5.49841L17.6457 5.34015L17.4775 5.30759L9.87997 1.45046L9.86914 1.31548L9.74511 1.38184L9.58467 1.30044L9.59636 1.46138L2.42597 5.29585L2.24383 5.33088L2.32201 5.51077L2.3038 5.52066L2.32467 5.51654L2.3961 5.68077L2.31423 5.69891L2.31096 13.8232L2.05984 13.8993L2.31096 14.0468V14.1775L2.45811 14.133L10.3139 18.7426L10.3309 18.7224L10.3491 18.7426L17.4558 14.1202L17.5909 14.1826V14.0322Z"
    fill="white"
  />
  <path
    fill-rule="evenodd"
    clip-rule="evenodd"
    d="M17.6267 5.46976C17.6267 5.58309 17.5351 5.67541 17.4224 5.67541C17.3096 5.67541 17.2182 5.58309 17.2182 5.46976C17.2182 5.3558 17.3096 5.26348 17.4224 5.26348C17.5351 5.26348 17.6267 5.3558 17.6267 5.46976Z"
    fill="white"
  />
  <path
    fill-rule="evenodd"
    clip-rule="evenodd"
    d="M17.4223 5.3622C17.3639 5.3622 17.3163 5.41042 17.3163 5.46977C17.3163 5.52849 17.3639 5.5763 17.4223 5.5763C17.4809 5.5763 17.5284 5.52849 17.5284 5.46977C17.5284 5.41042 17.4809 5.3622 17.4223 5.3622ZM17.4223 5.77433C17.2556 5.77433 17.1197 5.63771 17.1197 5.46977C17.1197 5.30121 17.2556 5.16438 17.4223 5.16438C17.5892 5.16438 17.725 5.30121 17.725 5.46977C17.725 5.63771 17.5892 5.77433 17.4223 5.77433Z"
    fill="white"
  />
  <path
    fill-rule="evenodd"
    clip-rule="evenodd"
    d="M17.4224 5.39311C17.3807 5.39311 17.3465 5.42753 17.3465 5.46977C17.3465 5.51181 17.3807 5.54581 17.4224 5.54581C17.4644 5.54581 17.4984 5.51181 17.4984 5.46977C17.4984 5.42753 17.4644 5.39311 17.4224 5.39311ZM17.4224 5.95711C17.1553 5.95711 16.9378 5.73848 16.9378 5.46977C16.9378 5.20024 17.1553 4.9816 17.4224 4.9816C17.6895 4.9816 17.9071 5.20024 17.9071 5.46977C17.9071 5.73848 17.6895 5.95711 17.4224 5.95711Z"
    fill="white"
  />
  <path
    fill-rule="evenodd"
    clip-rule="evenodd"
    d="M17.4223 5.64492C17.3264 5.64492 17.2482 5.56641 17.2482 5.46977C17.2482 5.37271 17.3264 5.29399 17.4223 5.29399C17.5183 5.29399 17.5967 5.37271 17.5967 5.46977C17.5967 5.56641 17.5183 5.64492 17.4223 5.64492ZM17.4223 5.08072C17.2095 5.08072 17.0362 5.25525 17.0362 5.46977C17.0362 5.68387 17.2095 5.8582 17.4223 5.8582C17.6354 5.8582 17.8085 5.68387 17.8085 5.46977C17.8085 5.25525 17.6354 5.08072 17.4223 5.08072ZM17.4223 6.05623C17.1008 6.05623 16.8395 5.79308 16.8395 5.46977C16.8395 5.14604 17.1008 4.88269 17.4223 4.88269C17.7436 4.88269 18.0052 5.14604 18.0052 5.46977C18.0052 5.79308 17.7436 6.05623 17.4223 6.05623Z"
    fill="white"
  />
  <path
    fill-rule="evenodd"
    clip-rule="evenodd"
    d="M15.1024 12.7505C15.1024 12.8642 15.0111 12.9562 14.8986 12.9562C14.7854 12.9562 14.6941 12.8642 14.6941 12.7505C14.6941 12.637 14.7854 12.5446 14.8986 12.5446C15.0111 12.5446 15.1024 12.637 15.1024 12.7505Z"
    fill="white"
  />
  <path
    fill-rule="evenodd"
    clip-rule="evenodd"
    d="M14.8986 12.6435C14.84 12.6435 14.7924 12.6915 14.7924 12.7505C14.7924 12.8092 14.84 12.857 14.8986 12.857C14.9567 12.857 15.0042 12.8092 15.0042 12.7505C15.0042 12.6915 14.9567 12.6435 14.8986 12.6435ZM14.8986 13.0551C14.7315 13.0551 14.5959 12.9182 14.5959 12.7505C14.5959 12.5823 14.7315 12.4457 14.8986 12.4457C15.0651 12.4457 15.2008 12.5823 15.2008 12.7505C15.2008 12.9182 15.0651 13.0551 14.8986 13.0551Z"
    fill="white"
  />
  <path
    fill-rule="evenodd"
    clip-rule="evenodd"
    d="M14.8985 12.6738C14.8564 12.6738 14.8224 12.7082 14.8224 12.7505C14.8224 12.7925 14.8564 12.8269 14.8985 12.8269C14.9403 12.8269 14.9742 12.7925 14.9742 12.7505C14.9742 12.7082 14.9403 12.6738 14.8985 12.6738ZM14.8985 13.2384C14.6313 13.2384 14.4139 13.0192 14.4139 12.7505C14.4139 12.4809 14.6313 12.2623 14.8985 12.2623C15.1656 12.2623 15.3827 12.4809 15.3827 12.7505C15.3827 13.0192 15.1656 13.2384 14.8985 13.2384Z"
    fill="white"
  />
  <path
    fill-rule="evenodd"
    clip-rule="evenodd"
    d="M14.8986 12.9258C14.8023 12.9258 14.7241 12.8471 14.7241 12.7505C14.7241 12.6534 14.8023 12.5747 14.8986 12.5747C14.9944 12.5747 15.0726 12.6534 15.0726 12.7505C15.0726 12.8471 14.9944 12.9258 14.8986 12.9258ZM14.8986 12.3614C14.6856 12.3614 14.5125 12.536 14.5125 12.7505C14.5125 12.9648 14.6856 13.1393 14.8986 13.1393C15.1115 13.1393 15.2847 12.9648 15.2847 12.7505C15.2847 12.536 15.1115 12.3614 14.8986 12.3614ZM14.8986 13.3373C14.5771 13.3373 14.3158 13.074 14.3158 12.7505C14.3158 12.4268 14.5771 12.1634 14.8986 12.1634C15.2198 12.1634 15.4811 12.4268 15.4811 12.7505C15.4811 13.074 15.2198 13.3373 14.8986 13.3373Z"
    fill="white"
  />
  <path
    fill-rule="evenodd"
    clip-rule="evenodd"
    d="M17.6267 13.9182C17.6267 14.0314 17.5351 14.1239 17.4224 14.1239C17.3096 14.1239 17.2182 14.0314 17.2182 13.9182C17.2182 13.8043 17.3096 13.7126 17.4224 13.7126C17.5351 13.7126 17.6267 13.8043 17.6267 13.9182Z"
    fill="white"
  />
  <path
    fill-rule="evenodd"
    clip-rule="evenodd"
    d="M17.4223 13.8113C17.3639 13.8113 17.3163 13.8591 17.3163 13.918C17.3163 13.977 17.3639 14.0248 17.4223 14.0248C17.4809 14.0248 17.5284 13.977 17.5284 13.918C17.5284 13.8591 17.4809 13.8113 17.4223 13.8113ZM17.4223 14.2228C17.2556 14.2228 17.1197 14.086 17.1197 13.918C17.1197 13.7501 17.2556 13.6133 17.4223 13.6133C17.5892 13.6133 17.725 13.7501 17.725 13.918C17.725 14.086 17.5892 14.2228 17.4223 14.2228Z"
    fill="white"
  />
  <path
    fill-rule="evenodd"
    clip-rule="evenodd"
    d="M17.4224 13.8414C17.3807 13.8414 17.3465 13.8758 17.3465 13.9182C17.3465 13.9603 17.3807 13.9949 17.4224 13.9949C17.4644 13.9949 17.4984 13.9603 17.4984 13.9182C17.4984 13.8758 17.4644 13.8414 17.4224 13.8414ZM17.4224 14.4056C17.1553 14.4056 16.9378 14.187 16.9378 13.9182C16.9378 13.6493 17.1553 13.4305 17.4224 13.4305C17.6895 13.4305 17.9071 13.6493 17.9071 13.9182C17.9071 14.187 17.6895 14.4056 17.4224 14.4056Z"
    fill="white"
  />
  <path
    fill-rule="evenodd"
    clip-rule="evenodd"
    d="M17.4223 14.0938C17.3264 14.0938 17.2482 14.0149 17.2482 13.918C17.2482 13.8212 17.3264 13.7424 17.4223 13.7424C17.5183 13.7424 17.5967 13.8212 17.5967 13.918C17.5967 14.0149 17.5183 14.0938 17.4223 14.0938ZM17.4223 13.5294C17.2095 13.5294 17.0362 13.7037 17.0362 13.918C17.0362 14.1323 17.2095 14.3065 17.4223 14.3065C17.6354 14.3065 17.8085 14.1323 17.8085 13.918C17.8085 13.7037 17.6354 13.5294 17.4223 13.5294ZM17.4223 14.5045C17.1008 14.5045 16.8395 14.2415 16.8395 13.918C16.8395 13.5945 17.1008 13.3314 17.4223 13.3314C17.7436 13.3314 18.0052 13.5945 18.0052 13.918C18.0052 14.2415 17.7436 14.5045 17.4223 14.5045Z"
    fill="white"
  />
  <path
    fill-rule="evenodd"
    clip-rule="evenodd"
    d="M10.532 18.4136C10.532 18.5269 10.4406 18.6192 10.3278 18.6192C10.2148 18.6192 10.1233 18.5269 10.1233 18.4136C10.1233 18.3002 10.2148 18.2079 10.3278 18.2079C10.4406 18.2079 10.532 18.3002 10.532 18.4136Z"
    fill="white"
  />
  <path
    fill-rule="evenodd"
    clip-rule="evenodd"
    d="M10.3277 18.3068C10.2694 18.3068 10.2217 18.3549 10.2217 18.4135C10.2217 18.4725 10.2694 18.5205 10.3277 18.5205C10.3861 18.5205 10.4337 18.4725 10.4337 18.4135C10.4337 18.3549 10.3861 18.3068 10.3277 18.3068ZM10.3277 18.7185C10.1608 18.7185 10.0251 18.5815 10.0251 18.4135C10.0251 18.2459 10.1608 18.109 10.3277 18.109C10.4946 18.109 10.6302 18.2459 10.6302 18.4135C10.6302 18.5815 10.4946 18.7185 10.3277 18.7185Z"
    fill="white"
  />
  <path
    fill-rule="evenodd"
    clip-rule="evenodd"
    d="M10.3278 18.3369C10.2859 18.3369 10.2516 18.3709 10.2516 18.4135C10.2516 18.4556 10.2859 18.4896 10.3278 18.4896C10.3697 18.4896 10.4039 18.4556 10.4039 18.4135C10.4039 18.3709 10.3697 18.3369 10.3278 18.3369ZM10.3278 18.9011C10.0607 18.9011 9.84314 18.6825 9.84314 18.4135C9.84314 18.1441 10.0607 17.9256 10.3278 17.9256C10.5951 17.9256 10.812 18.1441 10.812 18.4135C10.812 18.6825 10.5951 18.9011 10.3278 18.9011Z"
    fill="white"
  />
  <path
    fill-rule="evenodd"
    clip-rule="evenodd"
    d="M10.3278 18.5887C10.2316 18.5887 10.1533 18.5102 10.1533 18.4135C10.1533 18.3165 10.2316 18.238 10.3278 18.238C10.424 18.238 10.5022 18.3165 10.5022 18.4135C10.5022 18.5102 10.424 18.5887 10.3278 18.5887ZM10.3278 18.0245C10.115 18.0245 9.94165 18.199 9.94165 18.4135C9.94165 18.6276 10.115 18.8022 10.3278 18.8022C10.5406 18.8022 10.7138 18.6276 10.7138 18.4135C10.7138 18.199 10.5406 18.0245 10.3278 18.0245ZM10.3278 19C10.0065 19 9.74518 18.7369 9.74518 18.4135C9.74518 18.0898 10.0065 17.8265 10.3278 17.8265C10.6491 17.8265 10.9105 18.0898 10.9105 18.4135C10.9105 18.7369 10.6491 19 10.3278 19Z"
    fill="white"
  />
  <path
    fill-rule="evenodd"
    clip-rule="evenodd"
    d="M5.96124 12.9562C5.96124 13.0699 5.86976 13.1618 5.75719 13.1618C5.64422 13.1618 5.55295 13.0699 5.55295 12.9562C5.55295 12.8426 5.64422 12.7509 5.75719 12.7509C5.86976 12.7509 5.96124 12.8426 5.96124 12.9562Z"
    fill="white"
  />
  <path
    fill-rule="evenodd"
    clip-rule="evenodd"
    d="M5.7571 12.85C5.69877 12.85 5.65109 12.8974 5.65109 12.9561C5.65109 13.0148 5.69877 13.0629 5.7571 13.0629C5.81543 13.0629 5.86291 13.0148 5.86291 12.9561C5.86291 12.8974 5.81543 12.85 5.7571 12.85ZM5.7571 13.2607C5.59031 13.2607 5.45462 13.1241 5.45462 12.9561C5.45462 12.7884 5.59031 12.652 5.7571 12.652C5.92389 12.652 6.05938 12.7884 6.05938 12.9561C6.05938 13.1241 5.92389 13.2607 5.7571 13.2607Z"
    fill="white"
  />
  <path
    fill-rule="evenodd"
    clip-rule="evenodd"
    d="M5.75707 12.8799C5.71511 12.8799 5.68094 12.9145 5.68094 12.9562C5.68094 12.9988 5.71511 13.0328 5.75707 13.0328C5.79902 13.0328 5.833 12.9988 5.833 12.9562C5.833 12.9145 5.79902 12.8799 5.75707 12.8799ZM5.75707 13.4441C5.48999 13.4441 5.27264 13.2254 5.27264 12.9562C5.27264 12.6872 5.48999 12.4686 5.75707 12.4686C6.02415 12.4686 6.24129 12.6872 6.24129 12.9562C6.24129 13.2254 6.02415 13.4441 5.75707 13.4441Z"
    fill="white"
  />
  <path
    fill-rule="evenodd"
    clip-rule="evenodd"
    d="M5.75713 13.1319C5.66094 13.1319 5.58255 13.053 5.58255 12.9561C5.58255 12.8593 5.66094 12.7809 5.75713 12.7809C5.85331 12.7809 5.93149 12.8593 5.93149 12.9561C5.93149 13.053 5.85331 13.1319 5.75713 13.1319ZM5.75713 12.5675C5.54428 12.5675 5.37094 12.7418 5.37094 12.9561C5.37094 13.1704 5.54428 13.345 5.75713 13.345C5.96997 13.345 6.1429 13.1704 6.1429 12.9561C6.1429 12.7418 5.96997 12.5675 5.75713 12.5675ZM5.75713 13.543C5.43581 13.543 5.17447 13.2796 5.17447 12.9561C5.17447 12.6326 5.43581 12.3694 5.75713 12.3694C6.07823 12.3694 6.33958 12.6326 6.33958 12.9561C6.33958 13.2796 6.07823 13.543 5.75713 13.543Z"
    fill="white"
  />
  <path
    fill-rule="evenodd"
    clip-rule="evenodd"
    d="M2.68717 5.45781C2.68717 5.57114 2.59548 5.66285 2.48272 5.66285C2.36995 5.66285 2.27847 5.57114 2.27847 5.45781C2.27847 5.34385 2.36995 5.25153 2.48272 5.25153C2.59548 5.25153 2.68717 5.34385 2.68717 5.45781Z"
    fill="white"
  />
  <path
    fill-rule="evenodd"
    clip-rule="evenodd"
    d="M2.48277 5.35046C2.42404 5.35046 2.37676 5.39868 2.37676 5.45782C2.37676 5.51655 2.42404 5.56395 2.48277 5.56395C2.5411 5.56395 2.58858 5.51655 2.58858 5.45782C2.58858 5.39868 2.5411 5.35046 2.48277 5.35046ZM2.48277 5.76198C2.31577 5.76198 2.18008 5.62556 2.18008 5.45782C2.18008 5.28946 2.31577 5.15264 2.48277 5.15264C2.64956 5.15264 2.78525 5.28946 2.78525 5.45782C2.78525 5.62556 2.64956 5.76198 2.48277 5.76198Z"
    fill="white"
  />
  <path
    fill-rule="evenodd"
    clip-rule="evenodd"
    d="M2.48256 5.38054C2.4406 5.38054 2.40642 5.41516 2.40642 5.45782C2.40642 5.49985 2.4406 5.53406 2.48256 5.53406C2.52451 5.53406 2.55869 5.49985 2.55869 5.45782C2.55869 5.41516 2.52451 5.38054 2.48256 5.38054ZM2.48256 5.94537C2.21548 5.94537 1.99814 5.72612 1.99814 5.45782C1.99814 5.18828 2.21548 4.96965 2.48256 4.96965C2.74964 4.96965 2.96698 5.18828 2.96698 5.45782C2.96698 5.72612 2.74964 5.94537 2.48256 5.94537Z"
    fill="white"
  />
  <path
    fill-rule="evenodd"
    clip-rule="evenodd"
    d="M2.48286 5.63296C2.38646 5.63296 2.30829 5.55424 2.30829 5.4578C2.30829 5.36054 2.38646 5.28162 2.48286 5.28162C2.57884 5.28162 2.65702 5.36054 2.65702 5.4578C2.65702 5.55424 2.57884 5.63296 2.48286 5.63296ZM2.48286 5.06876C2.26981 5.06876 2.09667 5.24329 2.09667 5.4578C2.09667 5.67212 2.26981 5.84624 2.48286 5.84624C2.6957 5.84624 2.86884 5.67212 2.86884 5.4578C2.86884 5.24329 2.6957 5.06876 2.48286 5.06876ZM2.48286 6.04427C2.16134 6.04427 1.89999 5.78112 1.89999 5.4578C1.89999 5.13408 2.16134 4.87073 2.48286 4.87073C2.80396 4.87073 3.06551 5.13408 3.06551 5.4578C3.06551 5.78112 2.80396 6.04427 2.48286 6.04427Z"
    fill="white"
  />
  <path
    fill-rule="evenodd"
    clip-rule="evenodd"
    d="M10.1227 4.0271C10.1227 4.14044 10.031 4.23234 9.91865 4.23234C9.80546 4.23234 9.7142 4.14044 9.7142 4.0271C9.7142 3.91315 9.80546 3.82145 9.91865 3.82145C10.031 3.82145 10.1227 3.91315 10.1227 4.0271Z"
    fill="white"
  />
  <path
    fill-rule="evenodd"
    clip-rule="evenodd"
    d="M9.91866 3.92056C9.86011 3.92056 9.81245 3.96816 9.81245 4.02709C9.81245 4.08561 9.86011 4.13342 9.91866 4.13342C9.97695 4.13342 10.0243 4.08561 10.0243 4.02709C10.0243 3.96816 9.97695 3.92056 9.91866 3.92056ZM9.91866 4.33145C9.75164 4.33145 9.61578 4.19483 9.61578 4.02709C9.61578 3.85936 9.75164 3.72253 9.91866 3.72253C10.0852 3.72253 10.2209 3.85936 10.2209 4.02709C10.2209 4.19483 10.0852 4.33145 9.91866 4.33145Z"
    fill="white"
  />
  <path
    fill-rule="evenodd"
    clip-rule="evenodd"
    d="M9.91865 3.95045C9.87645 3.95045 9.84248 3.98507 9.84248 4.02711C9.84248 4.06915 9.87645 4.10335 9.91865 4.10335C9.96039 4.10335 9.99435 4.06915 9.99435 4.02711C9.99435 3.98507 9.96039 3.95045 9.91865 3.95045ZM9.91865 4.51528C9.65113 4.51528 9.43399 4.29602 9.43399 4.02711C9.43399 3.75778 9.65113 3.53915 9.91865 3.53915C10.1855 3.53915 10.4028 3.75778 10.4028 4.02711C10.4028 4.29602 10.1855 4.51528 9.91865 4.51528Z"
    fill="white"
  />
  <path
    fill-rule="evenodd"
    clip-rule="evenodd"
    d="M9.91871 4.20227C9.82254 4.20227 9.74411 4.12375 9.74411 4.02711C9.74411 3.93026 9.82254 3.85154 9.91871 3.85154C10.0147 3.85154 10.0928 3.93026 10.0928 4.02711C10.0928 4.12375 10.0147 4.20227 9.91871 4.20227ZM9.91871 3.63806C9.70582 3.63806 9.53248 3.8128 9.53248 4.02711C9.53248 4.24162 9.70582 4.41616 9.91871 4.41616C10.1315 4.41616 10.3045 4.24162 10.3045 4.02711C10.3045 3.8128 10.1315 3.63806 9.91871 3.63806ZM9.91871 4.61418C9.59715 4.61418 9.33582 4.35084 9.33582 4.02711C9.33582 3.70338 9.59715 3.44003 9.91871 3.44003C10.2398 3.44003 10.5011 3.70338 10.5011 4.02711C10.5011 4.35084 10.2398 4.61418 9.91871 4.61418Z"
    fill="white"
  />
  <path
    fill-rule="evenodd"
    clip-rule="evenodd"
    d="M9.92659 1.58646C9.92659 1.70042 9.83513 1.79212 9.72234 1.79212C9.60962 1.79212 9.5181 1.70042 9.5181 1.58646C9.5181 1.47313 9.60962 1.3806 9.72234 1.3806C9.83513 1.3806 9.92659 1.47313 9.92659 1.58646Z"
    fill="white"
  />
  <path
    fill-rule="evenodd"
    clip-rule="evenodd"
    d="M9.72241 1.47952C9.66405 1.47952 9.61633 1.52753 9.61633 1.58626C9.61633 1.64499 9.66405 1.693 9.72241 1.693C9.7807 1.693 9.82815 1.64499 9.82815 1.58626C9.82815 1.52753 9.7807 1.47952 9.72241 1.47952ZM9.72241 1.89103C9.55558 1.89103 9.41986 1.75421 9.41986 1.58626C9.41986 1.41832 9.55558 1.2817 9.72241 1.2817C9.88917 1.2817 10.0249 1.41832 10.0249 1.58626C10.0249 1.75421 9.88917 1.89103 9.72241 1.89103Z"
    fill="white"
  />
  <path
    fill-rule="evenodd"
    clip-rule="evenodd"
    d="M9.72239 1.50981C9.68059 1.50981 9.64622 1.54422 9.64622 1.58646C9.64622 1.6285 9.68059 1.66291 9.72239 1.66291C9.76433 1.66291 9.79849 1.6285 9.79849 1.58646C9.79849 1.54422 9.76433 1.50981 9.72239 1.50981ZM9.72239 2.07443C9.45527 2.07443 9.23773 1.85538 9.23773 1.58646C9.23773 1.31755 9.45527 1.09891 9.72239 1.09891C9.98965 1.09891 10.2068 1.31755 10.2068 1.58646C10.2068 1.85538 9.98965 2.07443 9.72239 2.07443Z"
    fill="white"
  />
  <path
    fill-rule="evenodd"
    clip-rule="evenodd"
    d="M9.72242 1.76203C9.62625 1.76203 9.54802 1.68311 9.54802 1.58626C9.54802 1.48941 9.62625 1.41069 9.72242 1.41069C9.8184 1.41069 9.89676 1.48941 9.89676 1.58626C9.89676 1.68311 9.8184 1.76203 9.72242 1.76203ZM9.72242 1.19803C9.50954 1.19803 9.3362 1.37215 9.3362 1.58626C9.3362 1.80098 9.50954 1.97552 9.72242 1.97552C9.93544 1.97552 10.1086 1.80098 10.1086 1.58626C10.1086 1.37215 9.93544 1.19803 9.72242 1.19803ZM9.72242 2.17334C9.40087 2.17334 9.13953 1.91019 9.13953 1.58626C9.13953 1.26294 9.40087 1 9.72242 1C10.0437 1 10.3051 1.26294 10.3051 1.58626C10.3051 1.91019 10.0437 2.17334 9.72242 2.17334Z"
    fill="white"
  />
  <path
    fill-rule="evenodd"
    clip-rule="evenodd"
    d="M2.74773 13.9489C2.74773 14.0629 2.65645 14.1546 2.54348 14.1546C2.43072 14.1546 2.33923 14.0629 2.33923 13.9489C2.33923 13.8354 2.43072 13.7437 2.54348 13.7437C2.65645 13.7437 2.74773 13.8354 2.74773 13.9489Z"
    fill="white"
  />
  <path
    fill-rule="evenodd"
    clip-rule="evenodd"
    d="M2.5435 13.8426C2.48517 13.8426 2.43748 13.8905 2.43748 13.9489C2.43748 14.0077 2.48517 14.0557 2.5435 14.0557C2.60203 14.0557 2.64951 14.0077 2.64951 13.9489C2.64951 13.8905 2.60203 13.8426 2.5435 13.8426ZM2.5435 14.2535C2.3767 14.2535 2.24081 14.1167 2.24081 13.9489C2.24081 13.781 2.3767 13.6446 2.5435 13.6446C2.71029 13.6446 2.84619 13.781 2.84619 13.9489C2.84619 14.1167 2.71029 14.2535 2.5435 14.2535Z"
    fill="white"
  />
  <path
    fill-rule="evenodd"
    clip-rule="evenodd"
    d="M2.54338 13.8729C2.50163 13.8729 2.46745 13.9067 2.46745 13.9489C2.46745 13.9914 2.50163 14.0254 2.54338 14.0254C2.58533 14.0254 2.61931 13.9914 2.61931 13.9489C2.61931 13.9067 2.58533 13.8729 2.54338 13.8729ZM2.54338 14.4369C2.2761 14.4369 2.05896 14.2183 2.05896 13.9489C2.05896 13.6799 2.2761 13.4614 2.54338 13.4614C2.81046 13.4614 3.0278 13.6799 3.0278 13.9489C3.0278 14.2183 2.81046 14.4369 2.54338 14.4369Z"
    fill="white"
  />
  <path
    fill-rule="evenodd"
    clip-rule="evenodd"
    d="M2.54341 14.1245C2.44743 14.1245 2.36925 14.0458 2.36925 13.9489C2.36925 13.8523 2.44743 13.7738 2.54341 13.7738C2.6396 13.7738 2.71778 13.8523 2.71778 13.9489C2.71778 14.0458 2.6396 14.1245 2.54341 14.1245ZM2.54341 13.5603C2.33057 13.5603 2.15743 13.7348 2.15743 13.9489C2.15743 14.1634 2.33057 14.338 2.54341 14.338C2.75646 14.338 2.9296 14.1634 2.9296 13.9489C2.9296 13.7348 2.75646 13.5603 2.54341 13.5603ZM2.54341 14.536C2.22231 14.536 1.96075 14.2725 1.96075 13.9489C1.96075 13.6256 2.22231 13.3625 2.54341 13.3625C2.86472 13.3625 3.12607 13.6256 3.12607 13.9489C3.12607 14.2725 2.86472 14.536 2.54341 14.536Z"
    fill="white"
  />
  <path
    fill-rule="evenodd"
    clip-rule="evenodd"
    d="M5.9077 12.8632L10.3252 18.2737L14.7425 12.6639L17.19 5.60413L9.91856 4.207L2.73142 5.58908L5.9077 12.8632ZM10.3303 18.8352L5.59683 13.0272L2.2337 5.32614L9.91856 3.84742L9.95113 3.85381L17.6546 5.33418L15.054 12.8368L15.0356 12.8599L10.3303 18.8352Z"
    fill="white"
  />
  <path
    fill-rule="evenodd"
    clip-rule="evenodd"
    d="M5.99237 12.8108L10.3241 18.1162L14.6555 12.6155L17.0598 5.67972L9.91874 4.30753L2.87135 5.66282L5.99237 12.8108ZM10.3268 18.4312L5.81779 12.9031L2.59178 5.51508L9.91874 4.106L9.93715 4.1095L17.3205 5.52826L14.8199 12.7255L10.3268 18.4312ZM5.68149 12.9751L10.329 18.6777L14.967 12.7879L17.5244 5.40998L9.91827 3.94816L2.37342 5.39989L5.68149 12.9751ZM10.3317 18.993L5.50692 13.0672L2.09427 5.25214L9.91914 3.74641L9.97052 3.75672L17.7851 5.25832L15.1307 12.8988L15.1123 12.9221L10.3317 18.993Z"
    fill="white"
  />
  <path
    fill-rule="evenodd"
    clip-rule="evenodd"
    d="M11.2967 8.27147L11.2701 8.32833C11.1482 8.5904 11.0217 8.85605 10.8915 9.12452C10.7608 9.39306 10.6312 9.65971 10.5014 9.92778L10.1816 10.6129L10.0855 10.8058C10.0282 10.6906 9.97221 10.5748 9.91751 10.4588L9.66461 9.92657C9.53547 9.65971 9.40547 9.39387 9.27473 9.12721C9.14333 8.86366 9.01419 8.59761 8.88545 8.32745L8.85886 8.27147H8.45422V12.0029H8.89528V9.3426L9.92841 11.438H10.2546L10.2814 11.382C10.376 11.1842 10.4707 10.9882 10.5645 10.7943L10.5737 10.7751C10.6707 10.5759 10.7712 10.37 10.878 10.1563L10.9417 10.022C11.0088 9.88082 11.0769 9.73739 11.1447 9.59086C11.178 9.52079 11.2116 9.44931 11.2457 9.37655V12.0029H11.6872V8.27147H11.2967Z"
    fill="white"
  />
</svg>
