<svg width="20" height="20" viewBox="0 0 20 20" fill="none" xmlns="http://www.w3.org/2000/svg">
  <g clip-path="url(#clip0_29_90)">
    <path d="M2.4 2.4H17.2V17.2H2.4V2.4Z" fill="white" />
    <path
      fill-rule="evenodd"
      clip-rule="evenodd"
      d="M3.2 0C1.43269 0 0 1.43269 0 3.2V16.8C0 18.5673 1.43269 20 3.2 20H16.8C18.5673 20 20 18.5673 20 16.8V3.2C20 1.43269 18.5673 0 16.8 0H3.2ZM5.2656 6.45544C5.2656 7.3228 5.97056 8.02844 6.83716 8.02844C7.70348 8.02844 8.40828 7.3228 8.40828 6.45544C8.40828 5.58808 7.70348 4.88228 6.83716 4.88228C5.97056 4.88228 5.2656 5.58808 5.2656 6.45544ZM3.84616 6.45532C3.84616 4.80468 5.18792 3.46154 6.83704 3.46154C8.48596 3.46154 9.82756 4.80468 9.82756 6.45532C9.82756 8.10624 8.48596 9.44924 6.83704 9.44924C5.18792 9.44924 3.84616 8.10624 3.84616 6.45532ZM11.74 6.64156H13.3656C13.9266 6.64156 14.0975 6.12428 14.0975 5.74412C14.0975 5.37512 13.9266 4.84656 13.3656 4.84656H11.74V6.64156ZM13.3721 3.46283C14.6318 3.46283 15.5101 4.45684 15.5101 5.74416C15.5101 7.03792 14.5864 8.02544 13.3721 8.02544H11.7398L11.7397 9.4442H10.3979V3.46283H13.3721ZM9.61956 12.8031H6.95544V13.874H8.1764C8.07896 14.346 7.58256 14.7691 6.83428 14.7691C5.94904 14.7691 5.22868 14.0481 5.22868 13.1621C5.22868 12.276 5.94904 11.5817 6.83428 11.5817C7.26844 11.5817 7.6758 11.7269 7.98096 12.0396L8.04892 12.1092L8.12952 12.0552L9.20484 11.3376L9.12068 11.2374C8.55088 10.5596 7.71756 10.1708 6.83428 10.1708C5.18676 10.1708 3.8462 11.5129 3.8462 13.1621C3.8462 14.8115 5.18676 16.1531 6.83428 16.1531C8.3006 16.1531 9.35264 15.308 9.57904 13.9476C9.63512 13.6112 9.64992 13.4408 9.6402 13.1621C9.63436 12.9961 9.62604 12.8776 9.61956 12.8031ZM13.2304 12.8039H15.8947C15.901 12.8784 15.9094 12.9969 15.9152 13.1629C15.9249 13.4414 15.9103 13.6121 15.8542 13.9483C15.6276 15.3087 14.5758 16.1539 13.1092 16.1539C11.4616 16.1539 10.1214 14.8122 10.1214 13.1629C10.1214 11.5135 11.4616 10.1716 13.1092 10.1716C13.9926 10.1716 14.8259 10.5604 15.3957 11.2381L15.48 11.3382L15.3712 11.411L14.4047 12.0559L14.3241 12.1099L14.2561 12.0404C13.9506 11.7276 13.5433 11.5823 13.1092 11.5823C12.224 11.5823 11.5037 12.2766 11.5037 13.1629C11.5037 14.0489 12.224 14.77 13.1092 14.77C13.8576 14.77 14.3542 14.3468 14.4514 13.8747H13.2304V12.8039ZM15.3821 8.3974C15.0478 8.3974 14.7758 8.66972 14.7758 9.00436C14.7758 9.33896 15.0478 9.61112 15.3821 9.61112C15.7166 9.61112 15.9886 9.33896 15.9886 9.00436C15.9886 8.66972 15.7166 8.3974 15.3821 8.3974Z"
      fill="#5383E8"
    />
  </g>
  <defs>
    <clipPath id="clip0_29_90">
      <rect width="20" height="20" fill="white" />
    </clipPath>
  </defs>
</svg>
