<svg width="20" height="20" viewBox="0 0 20 20" fill="none" xmlns="http://www.w3.org/2000/svg">
  <rect width="20" height="20" rx="3" fill="#0D0D28" />
  <path
    d="M12.8835 4.77048V13.5139C12.0198 13.9949 11.0419 14.2508 10.0454 14.2566C9.04542 14.2529 8.06375 13.9968 7.19742 13.5136V4.77048L5.20001 5.61717V14.5648L5.65201 14.858C6.94824 15.7075 8.47504 16.1674 10.0406 16.18C11.6047 16.1665 13.1299 15.7065 14.4249 14.8577L14.8769 14.5733V5.61717L12.8835 4.77048Z"
    fill="white"
  />
  <path
    d="M9.95665 3.6L8.97943 4.03756V10.3374C9.29857 10.4282 9.62903 10.4747 9.96117 10.4752C10.2942 10.4747 10.6254 10.4283 10.9449 10.3374V4.03756L9.95665 3.6Z"
    fill="#3273FA"
  />
</svg>
